<svg xmlns="http://www.w3.org/2000/svg" viewBox="0 0 32 32"><title>Artboard-31</title><g id="earth"><path d="M17.9374,5.1584A6.4743,6.4743,0,0,1,16.2222,10.4l-2.7583,2.9629a2.0007,2.0007,0,0,1-2.9273,0L7.7769,10.4A6.6375,6.6375,0,0,1,6.7331,8.9025,12.9959,12.9959,0,1,0,17.9374,5.1584ZM21.55,21.89l1.52.76.38,3.44a10.9484,10.9484,0,0,1-5.33,2.71l-1.16-4.07a.9893.9893,0,0,0-.8-.72l-6-1a1.08,1.08,0,0,0-.4.02l-3.1.78A10.9489,10.9489,0,0,1,5,18a11.1717,11.1717,0,0,1,.17-1.93l1.21.72,2.91,2.92a1.028,1.028,0,0,0,1.03.24l3-1a.9619.9619,0,0,0,.51-.4L15.54,16H19a.9978.9978,0,0,0,.98-.8l.91-4.56,2.06-1.17a10.9572,10.9572,0,0,1,3.18,4.25l-3.68,2.45a1.004,1.004,0,0,0-.42.59l-1,4A.9956.9956,0,0,0,21.55,21.89Z" style="fill:#262628"/><path d="M11.2681,12.6816a1,1,0,0,0,1.4638,0l2.7588-2.9628a5.3118,5.3118,0,0,0,1.0069-5.9122,4.9527,4.9527,0,0,0-3.8594-2.7695,5.3231,5.3231,0,0,0-1.2715,0,4.9528,4.9528,0,0,0-3.8643,2.77A5.3125,5.3125,0,0,0,8.5088,9.7188ZM12,4a2,2,0,1,1-2,2A2,2,0,0,1,12,4Z" style="fill:#262628"/></g></svg>